<?xml version="1.0" encoding="UTF-8" standalone="no"?>
<!-- Created with Inkscape (http://www.inkscape.org/) -->

<svg
   xmlns:dc="http://purl.org/dc/elements/1.1/"
   xmlns:cc="http://creativecommons.org/ns#"
   xmlns:rdf="http://www.w3.org/1999/02/22-rdf-syntax-ns#"
   xmlns:svg="http://www.w3.org/2000/svg"
   xmlns="http://www.w3.org/2000/svg"
   xmlns:sodipodi="http://sodipodi.sourceforge.net/DTD/sodipodi-0.dtd"
   xmlns:inkscape="http://www.inkscape.org/namespaces/inkscape"
   version="1.1"
   id="svg3713"
   width="216"
   height="300"
   viewBox="0 0 216 300"
   sodipodi:docname="mona.svg"
   inkscape:version="0.92.4 (5da689c313, 2019-01-14)">
  <metadata
     id="metadata3719">
    <rdf:RDF>
      <cc:Work
         rdf:about="">
        <dc:format>image/svg+xml</dc:format>
        <dc:type
           rdf:resource="http://purl.org/dc/dcmitype/StillImage" />
        <dc:title></dc:title>
      </cc:Work>
    </rdf:RDF>
  </metadata>
  <defs
     id="defs3717" />
  <sodipodi:namedview
     pagecolor="#ffffff"
     bordercolor="#666666"
     borderopacity="1"
     objecttolerance="10"
     gridtolerance="10"
     guidetolerance="10"
     inkscape:pageopacity="0"
     inkscape:pageshadow="2"
     inkscape:window-width="2560"
     inkscape:window-height="1377"
     id="namedview3715"
     showgrid="false"
     inkscape:zoom="2.8472833"
     inkscape:cx="150.88132"
     inkscape:cy="103.985"
     inkscape:window-x="-8"
     inkscape:window-y="-8"
     inkscape:window-maximized="1"
     inkscape:current-layer="text3729" />
  <g
     aria-label="This is 
   an
SVG test"
     style="font-style:normal;font-weight:normal;font-size:40px;line-height:1.25;font-family:sans-serif;letter-spacing:0px;word-spacing:0px;fill:#000000;fill-opacity:1;stroke:none"
     id="text3729"
     transform="translate(-10.185148,-6.3218156)">
    <path
       d="M 66.24189,43.6092 H 55.851265 V 69.253731 H 51.984077 V 43.6092 H 41.593452 V 40.1717 H 66.24189 Z"
       style="text-align:center;text-anchor:middle"
       id="path3735"
       inkscape:connector-curvature="0" />
    <path
       d="M 88.136421,69.253731 H 84.464546 V 56.831856 q 0,-1.503906 -0.175781,-2.8125 -0.175781,-1.328125 -0.644531,-2.070313 -0.488282,-0.820312 -1.40625,-1.210937 -0.917969,-0.410156 -2.382813,-0.410156 -1.503906,0 -3.144531,0.742187 -1.640625,0.742188 -3.144531,1.894531 V 69.253731 H 69.894234 V 38.863106 h 3.671875 V 49.8592 q 1.71875,-1.425782 3.554687,-2.226563 1.835938,-0.800781 3.769531,-0.800781 3.535157,0 5.390625,2.128906 1.855469,2.128906 1.855469,6.132813 z"
       style="text-align:center;text-anchor:middle"
       id="path3737"
       inkscape:connector-curvature="0" />
    <path
       d="m 99.152046,43.784981 h -4.140625 v -3.808594 h 4.140625 z m -0.234375,25.46875 H 95.245796 V 47.437325 h 3.671875 z"
       style="text-align:center;text-anchor:middle"
       id="path3739"
       inkscape:connector-curvature="0" />
    <path
       d="m 121.8083,62.964668 q 0,2.988282 -2.48047,4.902344 -2.46094,1.914063 -6.73828,1.914063 -2.42188,0 -4.45313,-0.566407 -2.01172,-0.585937 -3.37891,-1.269531 v -4.121094 h 0.19532 q 1.73828,1.308594 3.86718,2.089844 2.12891,0.761719 4.08204,0.761719 2.42187,0 3.78906,-0.78125 1.36719,-0.78125 1.36719,-2.460938 0,-1.289062 -0.74219,-1.953125 -0.74219,-0.664062 -2.85156,-1.132812 -0.78125,-0.175781 -2.05079,-0.410156 -1.25,-0.234375 -2.28515,-0.507813 -2.8711,-0.761719 -4.08203,-2.226562 -1.19141,-1.484375 -1.19141,-3.632813 0,-1.347656 0.54688,-2.539062 0.5664,-1.191407 1.69921,-2.128907 1.09375,-0.917968 2.77344,-1.445312 1.69922,-0.546875 3.78906,-0.546875 1.95313,0 3.94532,0.488281 2.01172,0.46875 3.33984,1.152344 v 3.925781 h -0.19531 q -1.40625,-1.035156 -3.41797,-1.738281 -2.01172,-0.722656 -3.94531,-0.722656 -2.01172,0 -3.39844,0.78125 -1.38672,0.761718 -1.38672,2.285156 0,1.347656 0.83984,2.03125 0.82032,0.683594 2.65625,1.113281 1.01563,0.234375 2.26563,0.46875 1.26953,0.234375 2.10937,0.429688 2.5586,0.585937 3.94532,2.011718 1.38672,1.445313 1.38672,3.828125 z"
       style="text-align:center;text-anchor:middle"
       id="path3741"
       inkscape:connector-curvature="0" />
    <path
       d="m 145.08955,43.784981 h -4.14063 v -3.808594 h 4.14063 z m -0.23438,25.46875 H 141.1833 V 47.437325 h 3.67187 z"
       style="text-align:center;text-anchor:middle"
       id="path3743"
       inkscape:connector-curvature="0" />
    <path
       d="m 167.7458,62.964668 q 0,2.988282 -2.48047,4.902344 -2.46094,1.914063 -6.73828,1.914063 -2.42188,0 -4.45313,-0.566407 -2.01172,-0.585937 -3.37891,-1.269531 v -4.121094 h 0.19532 q 1.73828,1.308594 3.86718,2.089844 2.12891,0.761719 4.08204,0.761719 2.42187,0 3.78906,-0.78125 1.36719,-0.78125 1.36719,-2.460938 0,-1.289062 -0.74219,-1.953125 -0.74219,-0.664062 -2.85156,-1.132812 -0.78125,-0.175781 -2.05079,-0.410156 -1.25,-0.234375 -2.28515,-0.507813 -2.8711,-0.761719 -4.08203,-2.226562 -1.19141,-1.484375 -1.19141,-3.632813 0,-1.347656 0.54688,-2.539062 0.5664,-1.191407 1.69921,-2.128907 1.09375,-0.917968 2.77344,-1.445312 1.69922,-0.546875 3.78906,-0.546875 1.95313,0 3.94532,0.488281 2.01172,0.46875 3.33984,1.152344 v 3.925781 h -0.19531 q -1.40625,-1.035156 -3.41797,-1.738281 -2.01172,-0.722656 -3.94531,-0.722656 -2.01172,0 -3.39844,0.78125 -1.38672,0.761718 -1.38672,2.285156 0,1.347656 0.83984,2.03125 0.82032,0.683594 2.65625,1.113281 1.01563,0.234375 2.26563,0.46875 1.26953,0.234375 2.10937,0.429688 2.5586,0.585937 3.94532,2.011718 1.38672,1.445313 1.38672,3.828125 z"
       style="text-align:center;text-anchor:middle"
       id="path3745"
       inkscape:connector-curvature="0" />
    <path
       d="m 122.47236,119.25373 h -3.65235 v -2.32422 q -0.48828,0.33203 -1.32812,0.9375 -0.82031,0.58594 -1.60156,0.9375 -0.91797,0.44922 -2.10938,0.74219 -1.1914,0.3125 -2.79297,0.3125 -2.94922,0 -5,-1.95313 -2.05078,-1.95312 -2.05078,-4.98046 0,-2.48047 1.05469,-4.00391 1.07422,-1.54297 3.04687,-2.42188 1.99219,-0.8789 4.78516,-1.1914 2.79297,-0.3125 5.99609,-0.46875 v -0.56641 q 0,-1.25 -0.44921,-2.07031 -0.42969,-0.82031 -1.25,-1.28906 -0.78125,-0.44922 -1.875,-0.60547 -1.09375,-0.15625 -2.28516,-0.15625 -1.44531,0 -3.22266,0.39062 -1.77734,0.3711 -3.67187,1.09375 h -0.19531 v -3.730465 q 1.07421,-0.292969 3.10546,-0.644532 2.03125,-0.351562 4.00391,-0.351562 2.30469,0 4.00391,0.390625 1.71875,0.371094 2.96875,1.289062 1.23047,0.898438 1.875,2.324222 0.64453,1.42578 0.64453,3.53515 z m -3.65235,-5.37109 v -6.07422 q -1.67968,0.0977 -3.96484,0.29297 -2.26562,0.19531 -3.59375,0.5664 -1.58203,0.44922 -2.55859,1.40625 -0.97657,0.9375 -0.97657,2.59766 0,1.875 1.13282,2.83203 1.13281,0.9375 3.45703,0.9375 1.93359,0 3.53515,-0.74219 1.60157,-0.76172 2.96875,-1.8164 z"
       style="text-align:center;text-anchor:middle"
       id="path3747"
       inkscape:connector-curvature="0" />
    <path
       d="m 147.82392,119.25373 h -3.67187 v -12.42187 q 0,-1.50391 -0.17579,-2.8125 -0.17578,-1.32813 -0.64453,-2.07032 -0.48828,-0.82031 -1.40625,-1.21093 -0.91797,-0.41016 -2.38281,-0.41016 -1.50391,0 -3.14453,0.74219 -1.64063,0.74218 -3.14453,1.89453 v 16.28906 h -3.67188 V 97.437325 h 3.67188 V 99.8592 q 1.71875,-1.425782 3.55469,-2.226563 1.83593,-0.800781 3.76953,-0.800781 3.53515,0 5.39062,2.128906 1.85547,2.128908 1.85547,6.132808 z"
       style="text-align:center;text-anchor:middle"
       id="path3749"
       inkscape:connector-curvature="0" />
    <path
       d="m 42.530952,160.95295 q 0,1.69922 -0.800781,3.35937 -0.78125,1.66016 -2.207031,2.8125 -1.5625,1.25 -3.652344,1.95313 -2.070312,0.70312 -5,0.70312 -3.144531,0 -5.664062,-0.58593 -2.5,-0.58594 -5.097657,-1.73828 v -4.84375 h 0.273438 q 2.207031,1.83593 5.097656,2.83203 2.890625,0.99609 5.429688,0.99609 3.59375,0 5.585937,-1.34766 2.011719,-1.34765 2.011719,-3.59375 0,-1.93359 -0.957031,-2.85156 -0.9375,-0.91797 -2.871094,-1.42578 -1.464844,-0.39062 -3.183594,-0.64453 -1.699219,-0.25391 -3.613281,-0.64453 -3.867188,-0.82031 -5.742188,-2.79297 -1.855468,-1.99219 -1.855468,-5.17578 0,-3.65235 3.085937,-5.97656 3.085938,-2.34375 7.832031,-2.34375 3.066407,0 5.625,0.58593 2.558594,0.58594 4.53125,1.44532 v 4.57031 H 41.08564 q -1.660156,-1.40625 -4.375,-2.32422 -2.695313,-0.9375 -5.527344,-0.9375 -3.105469,0 -5,1.28906 -1.875,1.28906 -1.875,3.32031 0,1.81641 0.9375,2.85157 0.9375,1.03515 3.300781,1.58203 1.25,0.27344 3.554688,0.66406 2.304687,0.39063 3.90625,0.80078 3.242187,0.85938 4.882812,2.59766 1.640625,1.73828 1.640625,4.86328 z"
       style="text-align:center;text-anchor:middle"
       id="path3751"
       inkscape:connector-curvature="0" />
    <path
       d="M 71.671577,140.1717 61.08564,169.25373 H 55.92939 L 45.343452,140.1717 h 4.140625 l 9.121094,25.58594 9.121094,-25.58594 z"
       style="text-align:center;text-anchor:middle"
       id="path3753"
       inkscape:connector-curvature="0" />
    <path
       d="m 100.34345,167.10529 q -2.38281,1.09375 -5.214841,1.91407 -2.8125,0.80078 -5.449219,0.80078 -3.398438,0 -6.230469,-0.9375 -2.832031,-0.9375 -4.824219,-2.8125 -2.011718,-1.89453 -3.105468,-4.72657 -1.09375,-2.85156 -1.09375,-6.66015 0,-6.97266 4.0625,-10.9961 4.082031,-4.04296 11.191406,-4.04296 2.480469,0 5.058594,0.60546 2.597656,0.58594 5.585936,2.01172 v 4.58985 h -0.351561 q -0.605469,-0.46875 -1.757813,-1.23047 -1.152344,-0.76172 -2.265625,-1.26953 -1.347656,-0.60547 -3.066406,-0.9961 -1.699219,-0.41015 -3.867188,-0.41015 -4.882812,0 -7.734375,3.14453 -2.832031,3.125 -2.832031,8.47656 0,5.64453 2.96875,8.78906 2.96875,3.125 8.085938,3.125 1.875,0 3.730468,-0.37109 1.875,-0.37109 3.28125,-0.95703 v -7.12891 h -7.792968 v -3.39844 h 11.621091 z"
       style="text-align:center;text-anchor:middle"
       id="path3755"
       inkscape:connector-curvature="0" />
    <path
       d="m 132.19892,169.05842 q -1.03516,0.27344 -2.26562,0.44922 -1.21094,0.17578 -2.16797,0.17578 -3.33985,0 -5.07813,-1.79688 -1.73828,-1.79687 -1.73828,-5.76172 v -11.60156 h -2.48047 v -3.08594 h 2.48047 v -6.26953 h 3.67188 v 6.26953 h 7.57812 v 3.08594 h -7.57812 v 9.94141 q 0,1.71875 0.0781,2.69531 0.0781,0.95703 0.54688,1.79688 0.42968,0.78125 1.17187,1.15234 0.76172,0.35156 2.30469,0.35156 0.89844,0 1.875,-0.2539 0.97656,-0.27344 1.40625,-0.44922 h 0.19531 z"
       style="text-align:center;text-anchor:middle"
       id="path3757"
       inkscape:connector-curvature="0" />
    <path
       d="m 154.91376,158.72639 h -16.07421 q 0,2.01172 0.60546,3.51562 0.60547,1.48438 1.66016,2.44141 1.01563,0.9375 2.40234,1.40625 1.40625,0.46875 3.08594,0.46875 2.22656,0 4.47266,-0.87891 2.26562,-0.89844 3.22265,-1.75781 h 0.19532 v 4.00391 q -1.85547,0.78125 -3.78907,1.30859 -1.93359,0.52734 -4.0625,0.52734 -5.42968,0 -8.47656,-2.92968 -3.04687,-2.94922 -3.04687,-8.35938 0,-5.35156 2.91015,-8.49609 2.92969,-3.14453 7.69532,-3.14453 4.41406,0 6.79687,2.57812 2.40234,2.57813 2.40234,7.32422 z m -3.57421,-2.8125 q -0.0195,-2.89063 -1.46485,-4.47266 -1.42578,-1.58203 -4.35547,-1.58203 -2.94922,0 -4.70703,1.73828 -1.73828,1.73828 -1.97265,4.31641 z"
       style="text-align:center;text-anchor:middle"
       id="path3759"
       inkscape:connector-curvature="0" />
    <path
       d="m 176.06611,162.96467 q 0,2.98828 -2.48047,4.90234 -2.46094,1.91406 -6.73828,1.91406 -2.42188,0 -4.45313,-0.5664 -2.01172,-0.58594 -3.3789,-1.26953 v -4.1211 h 0.19531 q 1.73828,1.3086 3.86719,2.08985 2.1289,0.76172 4.08203,0.76172 2.42187,0 3.78906,-0.78125 1.36719,-0.78125 1.36719,-2.46094 0,-1.28906 -0.74219,-1.95313 -0.74219,-0.66406 -2.85156,-1.13281 -0.78125,-0.17578 -2.05078,-0.41016 -1.25,-0.23437 -2.28516,-0.50781 -2.87109,-0.76172 -4.08203,-2.22656 -1.19141,-1.48438 -1.19141,-3.63281 0,-1.34766 0.54688,-2.53907 0.5664,-1.1914 1.69922,-2.1289 1.09375,-0.91797 2.77343,-1.44531 1.69922,-0.54688 3.78907,-0.54688 1.95312,0 3.94531,0.48828 2.01172,0.46875 3.33984,1.15235 v 3.92578 h -0.19531 q -1.40625,-1.03516 -3.41797,-1.73828 -2.01172,-0.72266 -3.94531,-0.72266 -2.01172,0 -3.39844,0.78125 -1.38672,0.76172 -1.38672,2.28516 0,1.34765 0.83985,2.03125 0.82031,0.68359 2.65625,1.11328 1.01562,0.23437 2.26562,0.46875 1.26953,0.23437 2.10938,0.42968 2.55859,0.58594 3.94531,2.01172 1.38672,1.44532 1.38672,3.82813 z"
       style="text-align:center;text-anchor:middle"
       id="path3761"
       inkscape:connector-curvature="0" />
    <path
       d="m 192.66767,169.05842 q -1.03516,0.27344 -2.26562,0.44922 -1.21094,0.17578 -2.16797,0.17578 -3.33985,0 -5.07813,-1.79688 -1.73828,-1.79687 -1.73828,-5.76172 v -11.60156 h -2.48047 v -3.08594 h 2.48047 v -6.26953 h 3.67188 v 6.26953 h 7.57812 v 3.08594 h -7.57812 v 9.94141 q 0,1.71875 0.0781,2.69531 0.0781,0.95703 0.54688,1.79688 0.42968,0.78125 1.17187,1.15234 0.76172,0.35156 2.30469,0.35156 0.89844,0 1.875,-0.2539 0.97656,-0.27344 1.40625,-0.44922 h 0.19531 z"
       style="text-align:center;text-anchor:middle"
       id="path3763"
       inkscape:connector-curvature="0" />
  </g>
</svg>
